<svg xmlns="http://www.w3.org/2000/svg" width="426" height="426" viewBox="0 0 426 426" version="1.1">
	<path d="M 113.486 92.895 C 106.918 96.662, 97.808 106.400, 79.695 129.015 C 47.258 169.515, 32.287 193.510, 29.476 209.500 C 26.814 224.646, 27.927 233.139, 33.313 238.776 C 39.094 244.826, 47.907 245.473, 54.057 240.299 C 58.460 236.594, 59.286 233.967, 59.984 221.447 C 60.561 211.093, 60.840 209.955, 64.396 203.447 C 69.658 193.818, 86.698 170.203, 104.336 148.095 C 120.977 127.238, 127.623 120, 130.136 120 C 132.668 120, 138.075 115.066, 139.636 111.329 C 146.041 95.999, 129.008 83.991, 113.486 92.895 M 259.500 133.412 C 255.118 135.359, 252.290 138.881, 250.884 144.139 C 246.445 160.748, 269.959 170.164, 278.686 155.272 C 283.402 147.226, 280.725 138.122, 272.434 134.015 C 267.758 131.697, 263.775 131.512, 259.500 133.412 M 137.844 150.394 C 123.087 155.665, 110.696 169.322, 104.064 187.624 C 99.641 199.831, 89.147 235.901, 87.419 244.838 C 85.728 253.584, 85.555 272.346, 87.108 278.515 C 90.853 293.386, 109.763 295.165, 116.878 281.316 C 117.543 280.021, 118 273.672, 118 265.726 L 118 252.320 124.579 229.410 C 131.959 203.712, 135.601 193.626, 139.569 187.900 C 145.187 179.793, 153.015 177.931, 162.641 182.413 C 168.580 185.179, 188.358 203.012, 195.337 211.895 C 202.699 221.266, 209.559 236.206, 215.821 256.508 C 219.988 270.017, 228.846 287.846, 233.904 292.904 C 249.528 308.528, 291.472 296.343, 317.795 268.535 C 324.001 261.979, 326.986 257.648, 332.693 246.918 C 341.215 230.899, 342.536 227.163, 343.852 215.376 C 344.405 210.423, 346.060 203.024, 347.530 198.935 C 351.760 187.163, 353.002 182.870, 352.978 180.091 C 352.943 175.909, 349.492 169.487, 345.910 166.936 C 339.853 162.623, 328.327 164.519, 324.428 170.470 C 322.893 172.813, 318.305 184.696, 315.344 194 C 314.556 196.475, 313.246 203.196, 312.431 208.937 C 311.106 218.277, 310.349 220.526, 305.225 230.343 C 298.817 242.621, 292.487 250.237, 283.766 256.159 C 275.942 261.472, 264.040 267.051, 259.120 267.711 L 255.148 268.244 251.670 261.338 C 249.757 257.540, 246.730 249.722, 244.942 243.966 C 238.367 222.794, 230.084 205.216, 221.003 193.165 C 214.719 184.825, 193.637 164.235, 185.348 158.342 C 182.779 156.515, 177.165 153.666, 172.871 152.010 C 165.740 149.261, 164.045 149.004, 153.282 149.044 C 146.233 149.070, 140.031 149.612, 137.844 150.394 M 371.363 199.049 C 366.130 201.640, 364.939 204.098, 357.068 228.548 C 342.896 272.570, 333.584 285.142, 304.228 299.889 C 299.678 302.175, 293.603 304.945, 290.728 306.046 C 284.493 308.432, 281.806 310.541, 279.624 314.760 C 276.278 321.231, 278.423 329.696, 284.458 333.831 C 288.759 336.778, 293.837 337.530, 299.613 336.076 C 305.908 334.491, 326.629 324.059, 336.537 317.487 C 345.489 311.550, 358.499 298.549, 364.338 289.707 C 372.590 277.212, 384.651 247.831, 391.456 223.647 C 395.417 209.569, 394.093 204.234, 385.406 199.266 C 380.534 196.480, 376.674 196.421, 371.363 199.049 M 164.810 258.793 C 160.483 259.321, 154.211 265.769, 152.846 271.093 C 151.790 275.214, 151.899 276.159, 153.906 280.305 C 156.775 286.233, 161.453 289.208, 168.062 289.307 C 173.670 289.392, 177.044 287.438, 180.839 281.908 C 184.038 277.246, 183.577 268.314, 179.937 264.422 C 175.892 260.097, 170.518 258.098, 164.810 258.793" stroke="none" fill="#000000" fill-rule="evenodd"/>
</svg>