<svg xmlns="http://www.w3.org/2000/svg"  width="426" height="426"><path fill-rule="evenodd" d="M113.486 92.895c-6.568 3.767-15.678 13.505-33.791 36.12-32.437 40.5-47.408 64.495-50.219 80.485-2.662 15.146-1.549 23.639 3.837 29.276 5.781 6.05 14.594 6.697 20.744 1.523 4.403-3.705 5.229-6.332 5.927-18.852.577-10.354.856-11.492 4.412-18 5.262-9.629 22.302-33.244 39.94-55.352 16.641-20.857 23.287-28.095 25.8-28.095 2.532 0 7.939-4.934 9.5-8.671 6.405-15.33-10.628-27.338-26.15-18.434M259.5 133.412c-4.382 1.947-7.21 5.469-8.616 10.727-4.439 16.609 19.075 26.025 27.802 11.133 4.716-8.046 2.039-17.15-6.252-21.257-4.676-2.318-8.659-2.503-12.934-.603m-121.656 16.982c-14.757 5.271-27.148 18.928-33.78 37.23-4.423 12.207-14.917 48.277-16.645 57.214-1.691 8.746-1.864 27.508-.311 33.677 3.745 14.871 22.655 16.65 29.77 2.801.665-1.295 1.122-7.644 1.122-15.59V252.32l6.579-22.91c7.38-25.698 11.022-35.784 14.99-41.51 5.618-8.107 13.446-9.969 23.072-5.487 5.939 2.766 25.717 20.599 32.696 29.482 7.362 9.371 14.222 24.311 20.484 44.613 4.167 13.509 13.025 31.338 18.083 36.396 15.624 15.624 57.568 3.439 83.891-24.369 6.206-6.556 9.191-10.887 14.898-21.617 8.522-16.019 9.843-19.755 11.159-31.542.553-4.953 2.208-12.352 3.678-16.441 4.23-11.772 5.472-16.065 5.448-18.844-.035-4.182-3.486-10.604-7.068-13.155-6.057-4.313-17.583-2.417-21.482 3.534-1.535 2.343-6.123 14.226-9.084 23.53-.788 2.475-2.098 9.196-2.913 14.937-1.325 9.34-2.082 11.589-7.206 21.406-6.408 12.278-12.738 19.894-21.459 25.816-7.824 5.313-19.726 10.892-24.646 11.552l-3.972.533-3.478-6.906c-1.913-3.798-4.94-11.616-6.728-17.372-6.575-21.172-14.858-38.75-23.939-50.801-6.284-8.34-27.366-28.93-35.655-34.823-2.569-1.827-8.183-4.676-12.477-6.332-7.131-2.749-8.826-3.006-19.589-2.966-7.049.026-13.251.568-15.438 1.35m233.519 48.655c-5.233 2.591-6.424 5.049-14.295 29.499-14.172 44.022-23.484 56.594-52.84 71.341-4.55 2.286-10.625 5.056-13.5 6.157-6.235 2.386-8.922 4.495-11.104 8.714-3.346 6.471-1.201 14.936 4.834 19.071 4.301 2.947 9.379 3.699 15.155 2.245 6.295-1.585 27.016-12.017 36.924-18.589 8.952-5.937 21.962-18.938 27.801-27.78 8.252-12.495 20.313-41.876 27.118-66.06 3.961-14.078 2.637-19.413-6.05-24.381-4.872-2.786-8.732-2.845-14.043-.217M164.81 258.793c-4.327.528-10.599 6.976-11.964 12.3-1.056 4.121-.947 5.066 1.06 9.212 2.869 5.928 7.547 8.903 14.156 9.002 5.608.085 8.982-1.869 12.777-7.399 3.199-4.662 2.738-13.594-.902-17.486-4.045-4.325-9.419-6.324-15.127-5.629"/></svg>