<svg xmlns="http://www.w3.org/2000/svg" width="16" height="16" fill="none" viewBox="0 0 24 24"><path fill="currentColor" d="M18.333 6.802v.06c0 .718 0 1.076-.172 1.37-.173.293-.487.467-1.114.816l-.66.367c.455-1.54.607-3.195.663-4.61l.008-.184.002-.044c.543.189.847.33 1.037.593.236.327.236.762.236 1.632m-16.666 0v.06c0 .718 0 1.076.172 1.37.173.293.487.467 1.114.816l.661.367c-.456-1.54-.608-3.195-.664-4.61l-.008-.184-.002-.044c-.542.189-.847.33-1.037.593-.236.327-.236.762-.236 1.632"/><path fill="currentColor" fill-rule="evenodd" d="M13.648 1.956A22 22 0 0 0 10 1.666c-1.486 0-2.71.132-3.647.29-.95.16-1.424.24-1.82.728S4.157 3.7 4.199 4.755c.144 3.624.926 8.15 5.176 8.55v2.945H8.183c-.397 0-.74.28-.817.67l-.158.788H5a.625.625 0 0 0 0 1.25h10a.625.625 0 0 0 0-1.25h-2.208l-.158-.788a.83.83 0 0 0-.817-.67h-1.192v-2.945c4.25-.4 5.032-4.926 5.176-8.55.042-1.055.063-1.583-.334-2.071-.396-.488-.87-.568-1.82-.728m-2.992 2.883a.625.625 0 0 1 .386.578V8.75a.625.625 0 0 1-1.25 0V6.926l-.183.183a.625.625 0 1 1-.884-.884l1.25-1.25a.63.63 0 0 1 .68-.136" clip-rule="evenodd"/></svg>