<svg xmlns="http://www.w3.org/2000/svg" width="16" height="16" fill="none" class="w-4 h-4" viewBox="0 0 16 16"><path fill="currentColor" d="M6.58 6.738a.803.803 0 1 0 .001 1.606.803.803 0 0 0 0-1.606m2.863 0a.873.873 0 1 0 .8.87.84.84 0 0 0-.8-.87M13.253.16H2.747A1.61 1.61 0 0 0 1.14 1.775v10.6a1.61 1.61 0 0 0 1.607 1.615h8.89l-.415-1.45 1.004.932.948.878 1.686 1.49V1.775A1.61 1.61 0 0 0 13.253.16m-3.026 10.239s-.283-.337-.518-.635a2.47 2.47 0 0 0 1.42-.933 4.5 4.5 0 0 1-.902.463 5.2 5.2 0 0 1-1.137.337 5.5 5.5 0 0 1-2.03-.008 6.6 6.6 0 0 1-1.153-.337 5 5 0 0 1-.573-.267c-.023-.015-.047-.023-.07-.039a.1.1 0 0 1-.032-.023c-.14-.079-.22-.134-.22-.134.336.46.822.786 1.373.925-.235.298-.525.651-.525.651a2.84 2.84 0 0 1-2.391-1.192 10.5 10.5 0 0 1 1.128-4.57A3.9 3.9 0 0 1 6.8 3.813l.079.095a5.3 5.3 0 0 0-2.062 1.027s.172-.094.462-.228a5.9 5.9 0 0 1 1.78-.494 1 1 0 0 1 .134-.015 6.4 6.4 0 0 1 3.944.737 5.2 5.2 0 0 0-1.953-.996l.11-.125a3.9 3.9 0 0 1 2.203.823 10.5 10.5 0 0 1 1.129 4.57 2.87 2.87 0 0 1-2.4 1.192"/></svg>