<svg xmlns="http://www.w3.org/2000/svg" width="16" height="16" fill="none"><path fill="currentColor" d="M8 .353a7.84 7.84 0 0 0-2.48 15.279c.393.068.54-.167.54-.373 0-.186-.01-.803-.01-1.46-1.97.363-2.48-.48-2.636-.921a2.85 2.85 0 0 0-.804-1.108c-.274-.147-.666-.51-.01-.519a1.57 1.57 0 0 1 1.206.804 1.676 1.676 0 0 0 2.283.646 1.65 1.65 0 0 1 .5-1.048c-1.745-.196-3.567-.872-3.567-3.871a3.05 3.05 0 0 1 .803-2.107 2.82 2.82 0 0 1 .079-2.078s.656-.206 2.156.804a7.4 7.4 0 0 1 3.92 0c1.499-1.02 2.156-.804 2.156-.804.29.657.318 1.4.078 2.078.529.573.816 1.327.804 2.107 0 3.008-1.833 3.675-3.577 3.87a1.86 1.86 0 0 1 .529 1.451c0 1.049-.01 1.892-.01 2.156 0 .206.147.45.539.373A7.844 7.844 0 0 0 7.999.353"/></svg>