<svg xmlns="http://www.w3.org/2000/svg" width="18" height="18" fill="none" viewBox="0 0 18 18"><path fill="currentColor" d="M12.75 6.75h-6v-1.5q0-.9.675-1.575c.9-.9 2.325-.9 3.15 0 .3.3.45.675.6 1.05.075.375.525.6.9.525s.675-.525.525-.9c-.15-.675-.525-1.275-.975-1.725C10.95 1.875 9.975 1.5 9 1.5c-2.1 0-3.75 1.65-3.75 3.75v1.5C3.975 6.75 3 7.725 3 9v5.25c0 1.275.975 2.25 2.25 2.25h7.5c1.275 0 2.25-.975 2.25-2.25V9c0-1.275-.975-2.25-2.25-2.25m-2.925 4.875-.075.075v1.05c0 .45-.3.75-.75.75s-.75-.3-.75-.75V11.7c-.45-.45-.525-1.125-.075-1.575S9.3 9.6 9.75 10.05c.45.375.525 1.125.075 1.575"/></svg>