<svg xmlns="http://www.w3.org/2000/svg" width="16" height="16" fill="none" viewBox="0 0 20 20"><path fill="currentColor" fill-rule="evenodd" d="M10 13.333a5.833 5.833 0 1 0 0-11.666 5.833 5.833 0 0 0 0 11.666M10 5c-.237 0-.395.284-.712.852L9.206 6c-.09.161-.135.242-.205.295-.07.054-.157.073-.332.113l-.16.036c-.614.14-.921.209-.995.444s.137.48.556.97l.108.127c.12.14.18.21.206.295.027.087.018.18 0 .365l-.017.17c-.063.654-.095.98.097 1.126.191.145.48.013 1.055-.252l.149-.069c.164-.075.245-.113.332-.113s.169.038.332.113l.15.069c.575.265.863.397 1.054.252s.16-.472.097-1.126l-.017-.17c-.018-.186-.027-.278 0-.365s.086-.155.206-.295l.108-.127c.42-.49.629-.735.556-.97-.074-.235-.381-.305-.996-.444l-.159-.036c-.175-.04-.262-.06-.332-.113s-.115-.134-.205-.295l-.082-.147C10.395 5.284 10.237 5 10 5" clip-rule="evenodd"/><path fill="currentColor" d="m3.746 10.828-1.253 1.297c-.45.466-.675.7-.753.897-.177.45-.025.948.361 1.185.17.104.476.136 1.087.2.346.037.518.055.663.11.324.125.576.386.695.721.054.15.072.329.107.686.062.634.094.95.194 1.126.228.4.71.557 1.144.373.191-.08.416-.313.866-.78l2.069-2.14a7.09 7.09 0 0 1-5.18-3.675M11.075 14.502l2.068 2.142c.45.466.675.699.866.78a.897.897 0 0 0 1.144-.374c.1-.176.132-.492.194-1.126.035-.357.053-.536.107-.686.12-.335.371-.596.695-.72.145-.056.317-.074.663-.11.611-.065.917-.097 1.087-.201.386-.237.538-.736.36-1.185-.077-.198-.302-.43-.752-.897l-1.253-1.297a7.09 7.09 0 0 1-5.18 3.674"/></svg>